# xmcd
#
# Track frame offsets: 
#        150
#        21330
#        46845
#        66482
#        86495
#        105600
#        127055
#        148490
#        169200
#        189810
#        214435
#        235810
#        255995
#
# Disc length: 3708 seconds
#
# Revision: 2
# Processed by: cddbd v1.5.2PL0 Copyright (c) Steve Scherf et al.
# Submitted via: ExactAudioCopyFreeDBPlugin 1.0
#
DISCID=bf0e7a0d
DTITLE=Levert - The Whole Scenario
DYEAR=1997
DGENRE=R&B
TTITLE0=Whole Scenario
TTITLE1=Do It Right Here
TTITLE2=You Keep Me Comin'
TTITLE3=Tru Dat
TTITLE4=Sorry Is
TTITLE5=Swing My Way
TTITLE6=Like Water
TTITLE7=Keys To My House
TTITLE8=Playground
TTITLE9=I'll Get It Done
TTITLE10=Ain't No Thang
TTITLE11=Mama's House
TTITLE12=Tru Dat (Hip Hop Remix)
EXTD=
EXTT0=
EXTT1=
EXTT2=
EXTT3=
EXTT4=
EXTT5=
EXTT6=
EXTT7=
EXTT8=
EXTT9=
EXTT10=
EXTT11=
EXTT12=
PLAYORDER=
